<?xml version="1.0" encoding="UTF-8" standalone="no"?>
<!-- Created with Inkscape (http://www.inkscape.org/) -->

<svg
   version="1.1"
   id="svg5434"
   width="314.39999"
   height="240"
   viewBox="0 0 314.39999 240"
   sodipodi:docname="fence.svg"
   xml:space="preserve"
   inkscape:version="1.2.2 (b0a8486541, 2022-12-01)"
   inkscape:export-filename="fence.png"
   inkscape:export-xdpi="40"
   inkscape:export-ydpi="40"
   xmlns:inkscape="http://www.inkscape.org/namespaces/inkscape"
   xmlns:sodipodi="http://sodipodi.sourceforge.net/DTD/sodipodi-0.dtd"
   xmlns="http://www.w3.org/2000/svg"
   xmlns:svg="http://www.w3.org/2000/svg"><defs
     id="defs5438">
	
	
	
	
	
	
	
	
	
	
	
	
	
	
	
	
	
	
	
	
	
	
	
	
	
	
	
	
	
	
	
	
	
	
	
	
	
	
	
	
	
	
	
	
	
	
	
	
	
	
	
	
	
	
	
	
	
	
	
	
	
	
	
	
	
	
	
	
	
	
	
	
	
	
	
	
	
	
	
	
	
	
	
	
	
	
	
	
	
	
	
	
	
	
	
	
	
	
	
	
	
	
	
	
	
	
	
	
	
	
	
	
	
	
	
	
	
	
	
	
	
	
	
	
	
	
	
	
	
	
	
	
	
	
	
	
	
	
	
	
	
	
	
	
	
	
	
	
	
	
	
	
	
	
	
	
	
	
	
	
	
	
	
	
	
	
	
	
	
	
	
	
	
	
	
	
	
	
	
	
	
	
	
	
	
	
	
	
	
	
	
	
	
	
	
	
	
	
	
	
	
	
	
	
	
	
	
	
	
	
	
	
	
	
	
	
	
	
	
	
	
	
	
	
	
	
	
	
	
	
	
	
	
	
	
	
	
	
	
	
	
	
	
	
	
	
	
	
	
	
	
	
	
	
	
	
	
	
	
	
	
	
	
	
	
	
	
	
	
	
	
	
	
	
	
	
	
	
	
	
	
	
	
	
	
	
	
	
	
	
	
	
	
	
	
	
	
	
	
	
	
	
	
	
	
	
	
	
	
	
	
	
	
	
	
	
	
	
	
	
	
	
	
	
	
	
	
	
	
	
</defs><sodipodi:namedview
     id="namedview5436"
     pagecolor="#ffffff"
     bordercolor="#000000"
     borderopacity="0.25"
     inkscape:showpageshadow="2"
     inkscape:pageopacity="0.0"
     inkscape:pagecheckerboard="0"
     inkscape:deskcolor="#d1d1d1"
     showgrid="false"
     inkscape:zoom="0.98333333"
     inkscape:cx="372.20339"
     inkscape:cy="171.35593"
     inkscape:window-width="1920"
     inkscape:window-height="1123"
     inkscape:window-x="0"
     inkscape:window-y="0"
     inkscape:window-maximized="1"
     inkscape:current-layer="g5440" /><g
     inkscape:groupmode="layer"
     inkscape:label="Image"
     id="g5440"><g
       id="g7606"
       transform="matrix(-0.52412234,0,0,0.52412234,77.571013,358.36299)"><polygon
         style="clip-rule:evenodd;fill:#e0d6c9;fill-rule:evenodd"
         points="1435.19,1226.125 1435.192,1276.304 1795.613,1075.582 1795.611,1025.404 "
         id="polygon6692"
         transform="translate(-1768.0162,-1597.5169)" /><polygon
         style="clip-rule:evenodd;fill:#b8b0a3;fill-rule:evenodd"
         points="1429.13,1222.749 1435.19,1226.125 1435.192,1276.304 1429.13,1272.929 "
         id="polygon6694"
         transform="translate(-1768.0162,-1597.5169)" /><polygon
         style="clip-rule:evenodd;fill:#d1c7bd;fill-rule:evenodd"
         points="1789.55,1022.026 1795.611,1025.404 1435.19,1226.125 1429.13,1222.749 "
         id="polygon6696"
         transform="translate(-1768.0162,-1597.5169)" /><polygon
         style="clip-rule:evenodd;fill:#ede8e0;fill-rule:evenodd"
         points="1457.717,1363.599 1502.766,1338.51 1502.769,1087.607 1480.246,1075.064 1457.715,1112.698 "
         id="polygon6698"
         transform="translate(-1768.0162,-1597.5169)" /><polygon
         style="clip-rule:evenodd;fill:#f5f2eb;fill-rule:evenodd"
         points="1474.339,1071.773 1480.246,1075.064 1457.715,1112.698 1451.808,1109.408 "
         id="polygon6700"
         transform="translate(-1768.0162,-1597.5169)" /><polygon
         style="clip-rule:evenodd;fill:#c9bfb0;fill-rule:evenodd"
         points="1451.81,1360.31 1457.717,1363.599 1457.715,1112.698 1451.808,1109.408 "
         id="polygon6702"
         transform="translate(-1768.0162,-1597.5169)" /><polygon
         style="clip-rule:evenodd;fill:#ede8e0;fill-rule:evenodd"
         points="1525.363,1326.073 1570.412,1300.984 1570.415,1050.08 1547.892,1037.534 1525.361,1075.172 "
         id="polygon6704"
         transform="translate(-1768.0162,-1597.5169)" /><polygon
         style="clip-rule:evenodd;fill:#f5f2eb;fill-rule:evenodd"
         points="1541.985,1034.246 1547.892,1037.534 1525.361,1075.172 1519.454,1071.882 "
         id="polygon6706"
         transform="translate(-1768.0162,-1597.5169)" /><polygon
         style="clip-rule:evenodd;fill:#c9bfb0;fill-rule:evenodd"
         points="1519.456,1322.783 1525.363,1326.073 1525.361,1075.172 1519.454,1071.882 "
         id="polygon6708"
         transform="translate(-1768.0162,-1597.5169)" /><polygon
         style="clip-rule:evenodd;fill:#ede8e0;fill-rule:evenodd"
         points="1592.806,1288.31 1637.856,1263.221 1637.858,1012.319 1615.333,999.773 1592.804,1037.408 "
         id="polygon6710"
         transform="translate(-1768.0162,-1597.5169)" /><polygon
         style="clip-rule:evenodd;fill:#f5f2eb;fill-rule:evenodd"
         points="1609.426,996.485 1615.333,999.773 1592.804,1037.408 1586.897,1034.12 "
         id="polygon6712"
         transform="translate(-1768.0162,-1597.5169)" /><polygon
         style="clip-rule:evenodd;fill:#c9bfb0;fill-rule:evenodd"
         points="1586.899,1285.02 1592.806,1288.31 1592.804,1037.408 1586.897,1034.12 "
         id="polygon6714"
         transform="translate(-1768.0162,-1597.5169)" /><polygon
         style="clip-rule:evenodd;fill:#ede8e0;fill-rule:evenodd"
         points="1660.448,1250.664 1705.498,1225.577 1705.5,974.673 1682.975,962.129 1660.446,999.764 "
         id="polygon6716"
         transform="translate(-1768.0162,-1597.5169)" /><polygon
         style="clip-rule:evenodd;fill:#f5f2eb;fill-rule:evenodd"
         points="1677.068,958.839 1682.975,962.129 1660.446,999.764 1654.539,996.475 "
         id="polygon6718"
         transform="translate(-1768.0162,-1597.5169)" /><polygon
         style="clip-rule:evenodd;fill:#c9bfb0;fill-rule:evenodd"
         points="1654.541,1247.376 1660.448,1250.664 1660.446,999.764 1654.539,996.475 "
         id="polygon6720"
         transform="translate(-1768.0162,-1597.5169)" /><polygon
         style="clip-rule:evenodd;fill:#ede8e0;fill-rule:evenodd"
         points="1728.01,1213.101 1773.06,1188.012 1773.062,937.108 1750.537,924.562 1728.008,962.199 "
         id="polygon6722"
         transform="translate(-1768.0162,-1597.5169)" /><polygon
         style="clip-rule:evenodd;fill:#f5f2eb;fill-rule:evenodd"
         points="1744.63,921.274 1750.537,924.562 1728.008,962.199 1722.101,958.91 "
         id="polygon6724"
         transform="translate(-1768.0162,-1597.5169)" /><polygon
         style="clip-rule:evenodd;fill:#c9bfb0;fill-rule:evenodd"
         points="1722.103,1209.81 1728.01,1213.101 1728.008,962.199 1722.101,958.91 "
         id="polygon6726"
         transform="translate(-1768.0162,-1597.5169)" /></g></g></svg>
